<svg width="36" height="36" viewBox="0 0 36 36" fill="none" xmlns="http://www.w3.org/2000/svg">
<path d="M14.7951 26.9999C14.3811 26.9999 13.9851 26.8289 13.7016 26.5274L6.40707 18.7589C5.83857 18.1559 5.87007 17.2064 6.47307 16.6394C7.07757 16.0724 8.02707 16.1024 8.59257 16.7054L14.7801 23.2919L27.3921 9.48892C27.9531 8.87542 28.9011 8.83493 29.5131 9.39292C30.1236 9.95092 30.1656 10.9004 29.6076 11.5109L15.9021 26.5109C15.6216 26.8199 15.2226 26.9969 14.8056 26.9999H14.7951Z" fill="green"/>
<mask id="mask0" mask-type="alpha" maskUnits="userSpaceOnUse" x="6" y="9" width="24" height="18">
<path d="M14.7951 26.9999C14.3811 26.9999 13.9851 26.8289 13.7016 26.5274L6.40707 18.7589C5.83857 18.1559 5.87007 17.2064 6.47307 16.6394C7.07757 16.0724 8.02707 16.1024 8.59257 16.7054L14.7801 23.2919L27.3921 9.48892C27.9531 8.87542 28.9011 8.83493 29.5131 9.39292C30.1236 9.95092 30.1656 10.9004 29.6076 11.5109L15.9021 26.5109C15.6216 26.8199 15.2226 26.9969 14.8056 26.9999H14.7951Z" fill="green"/>
</mask>
<g mask="url(#mask0)">
</g>
</svg>
