<svg width="15" height="15" viewBox="0 0 24 24" fill="none" xmlns="http://www.w3.org/2000/svg">
    <path d="M12.1138 0.228516C5.56175 0.228516 0.227051 5.53915 0.227051 12.1142C0.227051 18.6893 5.56175 23.9999 12.1138 23.9999C18.6658 23.9999 24.0005 18.6893 24.0005 12.1142C24.0363 5.53915 18.7016 0.228516 12.1138 0.228516ZM16.3744 11.6807L9.96556 15.2211C9.42851 15.5101 8.99887 15.185 8.99887 14.4986L8.92726 7.99577C8.92726 7.30937 9.3569 6.9481 9.89395 7.23711L16.3385 10.633C16.8756 10.922 16.9114 11.3917 16.3744 11.6807Z" fill="#153B4E"/>
    <path d="M23.8567 9.22419C23.427 7.20109 21.1714 3.26327 19.7393 2.64911C18.3788 2.07108 17.6627 1.09566 17.1256 0.987281C16.6244 0.8789 14.2614 -0.13265 13.4379 0.0479842C12.6144 0.228618 11.4329 -0.0603956 10.7526 0.011858C10.0724 0.120238 6.45625 0.915027 4.41546 2.79362C2.48208 4.56383 1.90923 5.53926 1.90923 5.53926C1.90923 5.53926 -1.70691 12.7646 1.01415 13.6317C1.73021 13.8484 1.6228 14.2819 1.65861 15.0406C1.65861 16.1605 1.33638 16.305 2.15985 16.9553C2.98333 17.6056 3.84261 16.3773 4.55867 17.0998C5.23894 17.8224 3.87841 19.4119 5.81179 20.4957C7.74517 21.5434 7.45874 18.7978 8.81927 19.2674C10.2156 19.7371 8.99829 21.6879 10.5736 21.7963C12.149 21.9408 11.5761 19.8093 12.507 19.9538C13.4379 20.0983 12.9008 21.6157 14.8342 21.2544C16.7676 20.8931 15.4787 19.2313 16.517 18.9062C17.5911 18.581 17.9491 20.6764 20.0257 18.6533C22.1023 16.6302 20.1331 16.6663 20.5986 15.8715C21.0282 15.0767 21.4936 16.4495 22.1023 14.6071C22.7468 12.7646 22.1739 13.451 22.1023 12.584C22.0307 11.7531 24.2863 11.2473 23.8567 9.22419Z" fill="#20BEC6"/>
    <path d="M20.1326 15.329H18.6647C18.5215 15.329 18.4141 15.2206 18.4141 15.0761V14.6787C18.4141 14.5342 18.5215 14.4258 18.6647 14.4258H20.1326C20.2758 14.4258 20.3832 14.5342 20.3832 14.6787V15.0761C20.3474 15.1844 20.24 15.329 20.1326 15.329Z" fill="#D8271C"/>
    <path d="M20.4913 10.9218C20.4555 10.9218 20.4197 10.9218 20.3481 10.8857L20.0259 10.6689C19.9543 10.6328 19.9185 10.5606 19.9185 10.5244C19.9185 10.4522 19.9185 10.3799 19.9543 10.3438L20.7061 9.04323C20.7777 8.93485 20.921 8.86259 21.0284 8.93485L21.3506 9.15161C21.4222 9.18773 21.458 9.25999 21.458 9.29611C21.458 9.36837 21.458 9.44062 21.4222 9.47675L20.6703 10.7773C20.6703 10.8857 20.5629 10.9218 20.4913 10.9218Z" fill="#D8271C"/>
    <path d="M18.4135 8.21234C18.3777 8.21234 18.3419 8.21234 18.3061 8.17621L17.9839 7.95945C17.8765 7.8872 17.8406 7.74269 17.9123 7.59818L18.6641 6.29762C18.7357 6.18924 18.8789 6.11699 18.9864 6.18924L19.3086 6.406C19.3802 6.44213 19.416 6.51438 19.416 6.55051C19.416 6.62276 19.416 6.69501 19.3802 6.73114L18.6283 8.06783C18.5567 8.14008 18.4851 8.21234 18.4135 8.21234Z" fill="#F6BF48"/>
    <path d="M16.4438 5.10545C16.408 5.10545 16.3722 5.10545 16.3364 5.06933C16.2647 5.0332 16.2289 4.99707 16.1931 4.92482L15.6919 3.47975C15.6561 3.40749 15.6561 3.33524 15.6919 3.29911C15.7277 3.22686 15.7635 3.19073 15.8351 3.15461L16.1931 3.0101C16.3364 2.97397 16.4796 3.0101 16.5154 3.15461L17.0166 4.59968C17.0524 4.74419 17.0166 4.88869 16.8734 4.92482L16.5154 5.06933C16.5154 5.10545 16.4796 5.10545 16.4438 5.10545Z" fill="#D8271C"/>
    <path d="M14.4039 5.6472C14.3681 5.68333 14.3681 5.68333 14.3323 5.71946C14.2607 5.75558 14.2249 5.75558 14.1533 5.75558L12.6854 5.35819C12.6138 5.35819 12.578 5.28594 12.5422 5.24981C12.5063 5.17755 12.5063 5.1053 12.5063 5.06917L12.6138 4.70791C12.6496 4.5634 12.7928 4.49115 12.9002 4.52727L14.3681 4.92467C14.4397 4.92467 14.4755 4.99692 14.5113 5.03305C14.5471 5.1053 14.5471 5.17755 14.5471 5.21368L14.4397 5.57495C14.4397 5.61108 14.4397 5.6472 14.4039 5.6472Z" fill="white"/>
    <path d="M10.8227 3.04618C10.7153 3.04618 10.6079 2.97393 10.5721 2.82942L10.5005 2.43203C10.5005 2.35977 10.5005 2.28752 10.5363 2.25139C10.5721 2.17914 10.6437 2.14301 10.6795 2.14301L12.1116 1.81787C12.1832 1.81787 12.2549 1.81787 12.2907 1.854C12.3623 1.89012 12.3981 1.96238 12.3981 1.99851L12.4697 2.3959C12.5055 2.54041 12.3981 2.68491 12.2907 2.72104L10.8585 3.04618C10.8585 3.04618 10.8227 3.04618 10.8227 3.04618Z" fill="#F6BF48"/>
    <path d="M15.0844 17.6777C15.0486 17.6777 15.0128 17.6777 14.977 17.6415L14.6548 17.4248C14.5473 17.3525 14.5115 17.208 14.5832 17.0635L15.335 15.763C15.4066 15.6546 15.5498 15.5823 15.6573 15.6546L15.9795 15.8713C16.0511 15.9075 16.0869 15.9797 16.0869 16.0158C16.0869 16.0881 16.0869 16.1603 16.0511 16.1965L15.2992 17.497C15.2276 17.6415 15.156 17.6777 15.0844 17.6777Z" fill="white"/>
    <path d="M4.41539 8.32055L3.12647 7.67027C3.01906 7.59802 2.94745 7.45351 3.01906 7.34513L3.19807 6.98386C3.26968 6.83936 3.41289 6.80323 3.5203 6.87548L4.80922 7.52576C4.91663 7.59802 4.98824 7.74253 4.91663 7.85091L4.73762 8.21217C4.66601 8.32055 4.5228 8.39281 4.41539 8.32055Z" fill="#F6BF48"/>
    <path d="M4.55777 14.7512C4.52196 14.7151 4.48616 14.6789 4.48616 14.6428L4.30714 14.2816C4.23554 14.1732 4.30714 13.9925 4.41455 13.9203L5.73928 13.1977C5.81088 13.1616 5.88249 13.1616 5.91829 13.1616C5.9899 13.1977 6.0257 13.2339 6.06151 13.27L6.24052 13.6313C6.27633 13.7035 6.27633 13.7758 6.24052 13.8119C6.20472 13.8842 6.16892 13.9203 6.13311 13.9564L4.80839 14.6789C4.73678 14.7151 4.66518 14.7151 4.62937 14.7151C4.59357 14.7512 4.55777 14.7512 4.55777 14.7512Z" fill="white"/>
    <path d="M6.2413 5.82806C6.20549 5.82806 6.16969 5.82806 6.09808 5.79194L5.77585 5.57517C5.66844 5.50292 5.63264 5.35841 5.70425 5.21391L6.45612 3.91334C6.52772 3.80496 6.67094 3.73271 6.77835 3.80496L7.10058 4.02172C7.17218 4.05785 7.20799 4.1301 7.20799 4.16623C7.20799 4.23848 7.20799 4.31074 7.17218 4.34686L6.42031 5.64743C6.38451 5.71968 6.34871 5.75581 6.2771 5.75581C6.2771 5.82806 6.2413 5.82806 6.2413 5.82806Z" fill="#D8271C"/>
    <path d="M5.31032 11.7526C5.23872 11.8249 5.0955 11.8249 5.0239 11.7165L3.87819 10.7411C3.77078 10.6327 3.77078 10.4882 3.84239 10.3798L4.09301 10.0908C4.12881 10.0547 4.20042 10.0186 4.27203 10.0186C4.34363 10.0186 4.41524 10.0186 4.45104 10.0908L5.59675 11.0662C5.63255 11.1024 5.66836 11.1746 5.70416 11.2469C5.70416 11.3191 5.70416 11.3914 5.66836 11.4275L5.41773 11.7165C5.34613 11.7526 5.34613 11.7526 5.31032 11.7526Z" fill="#D8271C"/>
    <path d="M6.67018 18.2916C6.56277 18.2916 6.45536 18.2194 6.41956 18.111L6.02573 16.6298C5.98992 16.4853 6.06153 16.3408 6.20474 16.3047L6.56278 16.1963C6.63438 16.1963 6.70599 16.1963 6.74179 16.2324C6.8134 16.2685 6.8492 16.3047 6.8492 16.3769L7.24304 17.8581C7.24304 17.9304 7.24304 18.0026 7.20723 18.0388C7.17143 18.111 7.13563 18.1471 7.06402 18.1471L6.70599 18.2555C6.74179 18.2916 6.70599 18.2916 6.67018 18.2916Z" fill="#D8271C"/>
    <path d="M11.5045 19.0504C11.3971 19.0504 11.2897 18.9782 11.2539 18.8698L10.8958 17.3886C10.86 17.2441 10.9316 17.0996 11.0749 17.0635L11.4329 16.9551C11.5045 16.9551 11.5761 16.9551 11.6119 16.9912C11.6835 17.0273 11.7193 17.0996 11.7193 17.1357L12.1132 18.6169C12.1132 18.6892 12.1132 18.7614 12.0774 18.7975C12.0415 18.8698 12.0057 18.9059 11.9341 18.9059L11.5761 19.0143C11.5403 19.0504 11.5403 19.0504 11.5045 19.0504Z" fill="#F6BF48"/>
    <path d="M17.5916 10.4166L9.32099 6.08137C8.64072 5.7201 8.06787 6.15363 8.06787 7.0568L8.13948 15.366C8.13948 16.2691 8.71233 16.6665 9.39259 16.3053L17.5916 11.7894C18.3076 11.392 18.2718 10.7779 17.5916 10.4166Z" fill="white"/>
    <path d="M17.5916 10.4166L9.32099 6.08137C8.64072 5.7201 8.06787 6.15363 8.06787 7.0568V8.17673L16.3384 12.4397L17.5558 11.7533C18.3076 11.392 18.2718 10.7779 17.5916 10.4166Z" fill="#153B4E"/>
</svg>
