<svg width="23" height="20" viewBox="0 0 23 20" fill="none" xmlns="http://www.w3.org/2000/svg">
<path d="M20.3038 2.78876C19.2041 1.71666 17.7483 1.1307 16.1946 1.1307C14.6409 1.1307 13.1806 1.721 12.081 2.7931L11.5067 3.35303L10.9235 2.78442C9.82383 1.71232 8.35913 1.11768 6.8054 1.11768C5.25611 1.11768 3.79586 1.70798 2.70068 2.77574C1.60104 3.84784 0.995572 5.27152 1.00002 6.78635C1.00002 8.30118 1.60994 9.72052 2.70958 10.7926L11.0704 18.9441C11.1861 19.0569 11.342 19.1177 11.4933 19.1177C11.6447 19.1177 11.8005 19.0612 11.9163 18.9484L20.2949 10.81C21.3945 9.73788 22 8.3142 22 6.79937C22.0044 5.28454 21.4034 3.86086 20.3038 2.78876Z" fill="white" stroke="white"/>
</svg>
