<svg width="23" height="20" viewBox="0 0 23 20" fill="none" xmlns="http://www.w3.org/2000/svg">
<path d="M20.3038 2.67109C19.2041 1.59899 17.7483 1.01302 16.1946 1.01302C14.6409 1.01302 13.1806 1.60333 12.081 2.67543L11.5067 3.23535L10.9235 2.66675C9.82383 1.59465 8.35913 1 6.8054 1C5.25611 1 3.79586 1.59031 2.70068 2.65807C1.60104 3.73017 0.995572 5.15385 1.00002 6.66868C1.00002 8.18351 1.60994 9.60285 2.70958 10.6749L11.0704 18.8264C11.1861 18.9392 11.342 19 11.4933 19C11.6447 19 11.8005 18.9436 11.9163 18.8307L20.2949 10.6923C21.3945 9.62021 22 8.19653 22 6.6817C22.0044 5.16687 21.4034 3.74319 20.3038 2.67109ZM19.449 9.86328L11.4933 17.5893L3.55546 9.85025C2.68287 8.99952 2.20206 7.87099 2.20206 6.66868C2.20206 5.46636 2.67842 4.33783 3.551 3.49144C4.41914 2.64504 5.57665 2.17627 6.8054 2.17627C8.03859 2.17627 9.20056 2.64504 10.0731 3.49578L11.0793 4.47673C11.3152 4.70678 11.6937 4.70678 11.9296 4.47673L12.9269 3.50446C13.7994 2.65373 14.9614 2.18495 16.1902 2.18495C17.4189 2.18495 18.5764 2.65373 19.449 3.50012C20.3216 4.35086 20.7979 5.47938 20.7979 6.6817C20.8024 7.88401 20.3216 9.01254 19.449 9.86328Z" fill="white" stroke="white"/>
</svg>
